<svg width="117" height="139" viewBox="0 0 117 139" fill="none" xmlns="http://www.w3.org/2000/svg">
<path fill-rule="evenodd" clip-rule="evenodd" d="M56.0035 7.87963C70.6103 9.61261 87.0429 5.52891 97.5433 17.8006C108.105 30.144 104.989 50.0046 107.02 67.5016C109.645 90.1198 124.809 117.544 110.941 133.233C97.0064 148.998 75.0679 127.714 56.0035 125.22C40.7438 123.223 22.8373 133.157 11.8975 120.273C0.93833 107.366 8.06074 85.8565 6.99601 67.5016C5.77929 46.5265 -7.0034 21.8497 5.31857 6.85887C17.6355 -8.12583 38.5233 5.80575 56.0035 7.87963Z" fill="#FFE8E1"/>
<g clip-path="url(#clip0_0_316)">
<path d="M78.5946 60.5853H77.9722C79.1585 58.6539 78.7205 56.0609 76.8165 54.6483C74.7651 53.1264 71.8498 53.6163 70.4181 55.7558L67.1864 60.5854H39.4241C37.1422 60.5854 35.2857 62.4419 35.2857 64.7239V91.1828C35.2857 93.4647 37.1422 95.3212 39.4241 95.3212H55.4992L54.2846 100.423H51.6631C49.9546 100.423 48.5647 101.813 48.5647 103.521V104.168H45.333C44.7672 104.168 44.3086 104.627 44.3086 105.192C44.3086 105.758 44.7672 106.217 45.333 106.217H72.6857C73.2515 106.217 73.7102 105.758 73.7102 105.192C73.7102 104.627 73.2515 104.168 72.6857 104.168H69.4541V103.521C69.4541 101.813 68.0641 100.423 66.3557 100.423H63.7342L62.5196 95.3212H78.5947C80.8766 95.3212 82.7331 93.4647 82.7331 91.1828V85.3608V64.7238C82.7331 62.4418 80.8766 60.5853 78.5946 60.5853ZM63.916 78.595C62.3143 79.7163 59.3136 78.1922 56.448 79.7213C55.7488 76.0891 56.1897 72.6731 59.829 71.9191C60.2993 71.8211 60.8057 71.7767 61.2368 71.7853C62.4686 72.6992 63.7145 73.6236 64.9429 74.535C65.4806 76.0992 65.2788 77.6412 63.916 78.595ZM64.9485 67.6142L67.8484 69.7657L65.6183 72.4847C64.7002 71.8036 63.9109 71.218 62.9928 70.5367C63.1835 70.2518 64.7742 67.8745 64.9485 67.6142ZM72.1211 56.8953C72.897 55.7355 74.4795 55.4656 75.5957 56.2939C76.7123 57.1223 76.9123 58.7149 76.0275 59.7937C74.4575 61.7077 70.7251 66.2584 69.1491 68.1798L66.0891 65.9094L72.1211 56.8953ZM67.4051 103.521V104.168H50.6136V103.521C50.6136 102.942 51.0844 102.472 51.6631 102.472H66.3556C66.9343 102.472 67.4051 102.942 67.4051 103.521ZM61.6279 100.423H56.3908L57.6053 95.3212H60.4134L61.6279 100.423ZM80.6842 91.1828C80.6842 92.335 79.7469 93.2723 78.5947 93.2723C76.9685 93.2723 41.2527 93.2723 39.4242 93.2723C38.272 93.2723 37.3347 92.335 37.3347 91.1828V86.3853H40.2621C40.8279 86.3853 41.2866 85.9265 41.2866 85.3608C41.2866 84.7951 40.8279 84.3364 40.2621 84.3364H37.3345V64.7238C37.3345 63.5716 38.2718 62.6342 39.424 62.6342H65.8154C64.834 64.1009 61.9707 68.3798 61.0638 69.7351C59.0562 69.7532 57.0518 70.4526 55.7397 71.9844C53.9542 74.0686 53.6405 77.3436 54.8074 81.7182C55.0068 82.4662 55.9402 82.7342 56.505 82.1947C59.1539 79.6636 62.453 82.4245 65.4074 80.0333C67.2109 78.5734 67.6377 76.2526 66.9576 74.0824C67.8769 72.9617 75.4261 63.7576 76.3475 62.6342H78.5945C79.7467 62.6342 80.684 63.5716 80.684 64.7238V84.3363H48.4575C47.8917 84.3363 47.4331 84.795 47.4331 85.3607C47.4331 85.9264 47.8917 86.3852 48.4575 86.3852H80.6842V91.1828Z" fill="#D54E24"/>
<path d="M44.1619 84.356C43.6688 84.4568 43.3383 84.8831 43.3383 85.3611C43.3383 86.0019 43.9242 86.4926 44.5625 86.3651C45.1298 86.2499 45.4753 85.7033 45.3667 85.1603C45.2527 84.5999 44.7091 84.2459 44.1619 84.356Z" fill="#D54E24"/>
</g>
<defs>
<clipPath id="clip0_0_316">
<rect width="52.4528" height="52.4528" fill="white" transform="translate(32.783 53.7642)"/>
</clipPath>
</defs>
</svg>
