<svg width="90" height="77" viewBox="0 0 90 77" fill="none" xmlns="http://www.w3.org/2000/svg">
<path d="M23.6503 76L2 38.5L23.6503 1H66.9517L88.6027 38.5L66.9517 76H23.6503Z" fill="white" stroke="#6041B7" stroke-width="2" stroke-miterlimit="10"/>
<path d="M56.4466 23.0381H34.0556C33.6407 23.0381 33.3047 22.7022 33.3047 22.2873C33.3047 21.8723 33.6407 21.5364 34.0556 21.5364H56.4466C56.8615 21.5364 57.1974 21.8723 57.1974 22.2873C57.1974 22.7022 56.8615 23.0381 56.4466 23.0381Z" fill="#6041B7"/>
<path d="M56.4466 26.6031H34.0556C33.6407 26.6031 33.3047 26.2672 33.3047 25.8522C33.3047 25.4372 33.6407 25.1013 34.0556 25.1013H56.4466C56.8615 25.1013 57.1974 25.4372 57.1974 25.8522C57.1974 26.2672 56.8615 26.6031 56.4466 26.6031Z" fill="#6041B7"/>
<path d="M56.4466 30.1687H34.0556C33.6407 30.1687 33.3047 29.8328 33.3047 29.4178C33.3047 29.0029 33.6407 28.6669 34.0556 28.6669H56.4466C56.8615 28.6669 57.1974 29.0029 57.1974 29.4178C57.1974 29.8328 56.8615 30.1687 56.4466 30.1687Z" fill="#6041B7"/>
<path d="M56.4466 33.7343H34.0556C33.6407 33.7343 33.3047 33.3984 33.3047 32.9835C33.3047 32.5685 33.6407 32.2326 34.0556 32.2326H56.4466C56.8615 32.2326 57.1974 32.5685 57.1974 32.9835C57.1974 33.3984 56.8615 33.7343 56.4466 33.7343Z" fill="#6041B7"/>
<path d="M60.6173 34.8166C60.0984 34.8166 59.6791 34.3973 59.6791 33.8784V20.9444C59.6791 20.3794 59.2195 19.9191 58.6545 19.9191H31.8483C31.2833 19.9191 30.8237 20.3794 30.8237 20.9444V33.8784C30.8237 34.3973 30.4043 34.8166 29.8855 34.8166C29.3666 34.8166 28.9472 34.3973 28.9472 33.8784V20.9444C28.9472 19.3446 30.2484 18.0426 31.8483 18.0426H58.6545C60.2543 18.0426 61.5555 19.3446 61.5555 20.9444V33.8784C61.5555 34.3965 61.1354 34.8166 60.6173 34.8166Z" fill="#6041B7"/>
<path d="M21.3456 27.8897L26.9816 23.6472C27.2502 23.4452 27.6337 23.637 27.6337 23.9721V32.3884C27.6337 32.7229 27.2531 32.9146 26.9846 32.7156L21.3486 28.5418C21.1297 28.3801 21.1283 28.0537 21.3456 27.8897Z" fill="#6041B7"/>
<path d="M63.6093 23.9784L69.2277 27.8938C69.4561 28.0526 69.4612 28.3892 69.2372 28.5546L63.6188 32.7159C63.3502 32.915 62.9697 32.7233 62.9697 32.3888V24.3121C62.9697 23.9835 63.34 23.7903 63.6093 23.9784Z" fill="#6041B7"/>
<path d="M20.9103 31.2707V57.9415C20.9103 58.3089 21.3582 58.4882 21.6114 58.2225L36.607 42.5039C36.7768 42.326 36.7512 42.0391 36.5529 41.8942L21.5572 30.9421C21.2886 30.746 20.9103 30.9377 20.9103 31.2707Z" fill="#6041B7"/>
<path d="M69.6933 31.2713V57.9421C69.6933 58.3094 69.2454 58.4888 68.9922 58.2231L53.9966 42.5044C53.8268 42.3266 53.8524 42.0397 54.0508 41.8948L69.0464 30.9426C69.315 30.7465 69.6933 30.9383 69.6933 31.2713Z" fill="#6041B7"/>
<path d="M44.8197 36.3433L23.8222 58.2695C23.5741 58.5286 23.7578 58.9582 24.1164 58.9582H66.1122C66.4708 58.9582 66.6538 58.5286 66.4064 58.2695L45.4089 36.3433C45.2472 36.1757 44.98 36.1757 44.8197 36.3433Z" fill="#6041B7"/>
</svg>
