<svg width="91" height="91" viewBox="0 0 91 91" fill="none" xmlns="http://www.w3.org/2000/svg">
<g clip-path="url(#clip0_0_552)">
<path d="M89.551 76.9499L73.5732 60.9721C73.5728 60.9718 73.5727 60.9716 73.5721 60.9711C73.5716 60.9705 73.5716 60.9705 73.5711 60.97L67.8596 55.2585C65.9303 53.329 62.7902 53.3283 60.8602 55.2585L60.1601 55.9586L57.7481 53.5466C62.4735 47.8808 65.3208 40.5967 65.3208 32.6594C65.3205 14.651 50.6694 0 32.6609 0C14.6523 0 0.00164795 14.651 0.00164795 32.6594C0.00164795 50.6678 14.6523 65.3188 32.6609 65.3188C40.5981 65.3188 47.8822 62.4715 53.548 57.7463L55.9601 60.1581L55.2598 60.8584C53.3307 62.788 53.3307 65.9279 55.2602 67.8577L76.9514 89.549C78.8853 91.4833 82.0166 91.4838 83.9511 89.5492L89.5508 83.9495C91.4808 82.0198 91.4808 78.8799 89.551 76.9499ZM32.6609 59.3795C17.9274 59.3795 5.94082 47.3929 5.94082 32.6594C5.94082 17.9259 17.9274 5.93935 32.6609 5.93935C47.3943 5.93935 59.3811 17.9259 59.3811 32.6594C59.3811 47.3929 47.3943 59.3795 32.6609 59.3795ZM60.1599 64.3581L64.3596 60.1585L67.2723 63.0712L63.0726 67.2709L60.1599 64.3581ZM80.4513 84.6494L67.2723 71.4704L71.472 67.2707L84.651 80.4497L80.4513 84.6494Z" fill="#8F7ACC"/>
<path d="M32.6605 11.8789C31.0203 11.8789 29.6907 13.2085 29.6907 14.8487C29.6907 16.4888 31.0203 17.8184 32.6605 17.8184C40.8442 17.8184 47.5022 24.4758 47.5022 32.6593C47.5022 34.2994 48.8318 35.629 50.4719 35.629C52.1121 35.629 53.4417 34.2994 53.4417 32.6593C53.4417 21.2009 44.1192 11.8789 32.6605 11.8789Z" fill="#8F7ACC"/>
</g>
<defs>
<clipPath id="clip0_0_552">
<rect width="91" height="91" fill="white"/>
</clipPath>
</defs>
</svg>
