<svg width="91" height="91" viewBox="0 0 91 91" fill="none" xmlns="http://www.w3.org/2000/svg">
<path d="M83.8906 22.7501H82.044C83.6938 20.9097 84.7755 18.631 85.1582 16.1892C85.5409 13.7474 85.2083 11.2471 84.2005 8.99023C83.1928 6.73339 81.5531 4.81667 79.4795 3.47165C77.4059 2.12664 74.9872 1.41089 72.5156 1.41089C70.044 1.41089 67.6253 2.12664 65.5517 3.47165C63.4781 4.81667 61.8384 6.73339 60.8307 8.99023C59.823 11.2471 59.4904 13.7474 59.8731 16.1892C60.2558 18.631 61.3374 20.9097 62.9873 22.7501H45.5V8.53131C45.5 8.1542 45.3502 7.79254 45.0835 7.52589C44.8169 7.25924 44.4552 7.10943 44.0781 7.10943H38.3906C38.0135 7.10943 37.6519 7.25924 37.3852 7.52589C37.1186 7.79254 36.9688 8.1542 36.9688 8.53131V22.7501H35.5469V2.84381C35.5469 2.4667 35.3971 2.10504 35.1304 1.83839C34.8638 1.57173 34.5021 1.42193 34.125 1.42193H28.4375C28.0604 1.42193 27.6987 1.57173 27.4321 1.83839C27.1654 2.10504 27.0156 2.4667 27.0156 2.84381V22.7501H25.5938V12.7969C25.5938 12.4198 25.4439 12.0582 25.1773 11.7915C24.9106 11.5249 24.549 11.3751 24.1719 11.3751H18.4844C18.1073 11.3751 17.7456 11.5249 17.479 11.7915C17.2123 12.0582 17.0625 12.4198 17.0625 12.7969V22.7501H7.10938C5.60148 22.7517 4.15582 23.3515 3.08958 24.4178C2.02333 25.484 1.42357 26.9297 1.42188 28.4376V71.0938C1.42357 72.6017 2.02333 74.0474 3.08958 75.1136C4.15582 76.1798 5.60148 76.7796 7.10938 76.7813H36.4178L34.5213 82.4688H29.8594C29.4823 82.4688 29.1206 82.6186 28.854 82.8853C28.5873 83.1519 28.4375 83.5136 28.4375 83.8907V86.7344H14.2188C13.8416 86.7344 13.48 86.8842 13.2133 87.1509C12.9467 87.4175 12.7969 87.7792 12.7969 88.1563C12.7969 88.5334 12.9467 88.8951 13.2133 89.1617C13.48 89.4284 13.8416 89.5782 14.2188 89.5782H76.7812C77.1584 89.5782 77.52 89.4284 77.7867 89.1617C78.0533 88.8951 78.2031 88.5334 78.2031 88.1563C78.2031 87.7792 78.0533 87.4175 77.7867 87.1509C77.52 86.8842 77.1584 86.7344 76.7812 86.7344H62.5625V83.8907C62.5625 83.5136 62.4127 83.1519 62.146 82.8853C61.8794 82.6186 61.5177 82.4688 61.1406 82.4688H56.4786L54.5822 76.7813H83.8906C85.3985 76.7796 86.8442 76.1798 87.9104 75.1136C88.9767 74.0474 89.5764 72.6017 89.5781 71.0938V28.4376C89.5764 26.9297 88.9767 25.484 87.9104 24.4178C86.8442 23.3515 85.3985 22.7517 83.8906 22.7501ZM73.9375 4.36877C76.0625 4.67886 78.0307 5.66664 79.5492 7.18518C81.0678 8.70373 82.0556 10.6719 82.3657 12.7969H73.9375V4.36877ZM73.1039 15.6407H82.3657C82.1201 17.3492 81.4341 18.9645 80.3751 20.3276C79.3162 21.6907 77.9207 22.7548 76.3259 23.4152C74.7311 24.0756 72.9919 24.3096 71.2793 24.0942C69.5667 23.8788 67.9396 23.2214 66.558 22.1866L73.1039 15.6407ZM62.5625 14.2188C62.5659 11.8265 63.4296 9.51516 64.9958 7.7068C66.5621 5.89844 68.7264 4.71367 71.0938 4.36877V13.6305L64.5478 20.1765C63.2571 18.4586 62.5603 16.3675 62.5625 14.2188ZM39.8125 9.95318H42.6562V36.9688H39.8125V9.95318ZM35.5469 25.5938H36.9688V36.9688H35.5469V25.5938ZM29.8594 4.26568H32.7031V36.9688H29.8594V4.26568ZM25.5938 25.5938H27.0156V36.9688H25.5938V25.5938ZM19.9062 14.2188H22.75V36.9688H19.9062V14.2188ZM59.7188 85.3126V86.7344H31.2812V85.3126H59.7188ZM37.5197 82.4688L39.4162 76.7813H51.5839L53.4803 82.4688H37.5197ZM86.7344 71.0938C86.7334 71.8477 86.4335 72.5705 85.9004 73.1036C85.3673 73.6367 84.6445 73.9366 83.8906 73.9376H7.10938C6.35547 73.9366 5.63272 73.6367 5.09963 73.1036C4.56654 72.5705 4.26661 71.8477 4.26562 71.0938V68.2501H86.7344V71.0938ZM86.7344 65.4063H4.26562V28.4376C4.26661 27.6836 4.56654 26.9609 5.09963 26.4278C5.63272 25.8947 6.35547 25.5948 7.10938 25.5938H17.0625V36.9688H15.6406V28.4376C15.6406 28.0604 15.4908 27.6988 15.2242 27.4321C14.9575 27.1655 14.5959 27.0157 14.2188 27.0157H8.53125C8.15415 27.0157 7.79249 27.1655 7.52583 27.4321C7.25918 27.6988 7.10938 28.0604 7.10938 28.4376V38.3907C7.10938 38.7678 7.25918 39.1294 7.52583 39.3961C7.79249 39.6628 8.15415 39.8126 8.53125 39.8126H54.0312C54.4084 39.8126 54.77 39.6628 55.0367 39.3961C55.3033 39.1294 55.4531 38.7678 55.4531 38.3907V28.4376C55.4531 28.0604 55.3033 27.6988 55.0367 27.4321C54.77 27.1655 54.4084 27.0157 54.0312 27.0157H48.3438C47.9666 27.0157 47.605 27.1655 47.3383 27.4321C47.0717 27.6988 46.9219 28.0604 46.9219 28.4376V36.9688H45.5V25.5938H66.6646C68.4734 26.5281 70.4797 27.0157 72.5156 27.0157C74.5515 27.0157 76.5578 26.5281 78.3666 25.5938H83.8906C84.6445 25.5948 85.3673 25.8947 85.9004 26.4278C86.4335 26.9609 86.7334 27.6836 86.7344 28.4376V65.4063ZM12.7969 29.8594V36.9688H9.95312V29.8594H12.7969ZM49.7656 36.9688V29.8594H52.6094V36.9688H49.7656Z" fill="#8F7ACC"/>
<path d="M17.0625 69.6719H8.53125C8.15415 69.6719 7.79249 69.8217 7.52583 70.0883C7.25918 70.355 7.10938 70.7166 7.10938 71.0938C7.10938 71.4709 7.25918 71.8325 7.52583 72.0992C7.79249 72.3658 8.15415 72.5156 8.53125 72.5156H17.0625C17.4396 72.5156 17.8013 72.3658 18.0679 72.0992C18.3346 71.8325 18.4844 71.4709 18.4844 71.0938C18.4844 70.7166 18.3346 70.355 18.0679 70.0883C17.8013 69.8217 17.4396 69.6719 17.0625 69.6719Z" fill="#8F7ACC"/>
<path d="M22.75 69.6719H21.3281C20.951 69.6719 20.5894 69.8217 20.3227 70.0883C20.0561 70.355 19.9062 70.7166 19.9062 71.0938C19.9062 71.4709 20.0561 71.8325 20.3227 72.0992C20.5894 72.3658 20.951 72.5156 21.3281 72.5156H22.75C23.1271 72.5156 23.4888 72.3658 23.7554 72.0992C24.0221 71.8325 24.1719 71.4709 24.1719 71.0938C24.1719 70.7166 24.0221 70.355 23.7554 70.0883C23.4888 69.8217 23.1271 69.6719 22.75 69.6719Z" fill="#8F7ACC"/>
<path d="M61.1406 36.9687C61.3274 36.969 61.5124 36.9324 61.6849 36.8609C61.8575 36.7894 62.0142 36.6846 62.1461 36.5523L67.417 31.2812H79.625C80.0021 31.2812 80.3638 31.1314 80.6304 30.8648C80.8971 30.5981 81.0469 30.2365 81.0469 29.8594C81.0469 29.4823 80.8971 29.1206 80.6304 28.854C80.3638 28.5873 80.0021 28.4375 79.625 28.4375H66.8281C66.6414 28.4375 66.4565 28.4743 66.284 28.5457C66.1115 28.6172 65.9547 28.7219 65.8227 28.8539L60.1352 34.5414C59.9363 34.7403 59.8009 34.9936 59.746 35.2695C59.6912 35.5453 59.7193 35.8312 59.8269 36.091C59.9346 36.3508 60.1168 36.5729 60.3506 36.7291C60.5845 36.8854 60.8594 36.9688 61.1406 36.9687Z" fill="#8F7ACC"/>
<path d="M79.625 52.6094C78.8778 52.6099 78.1438 52.8067 77.4966 53.1801C76.8494 53.5534 76.3116 54.0903 75.937 54.7368L61.0518 46.0527C60.8501 45.0838 60.3178 44.2151 59.546 43.5955C58.7742 42.9759 57.8109 42.644 56.8213 42.6566C55.8316 42.6692 54.8772 43.0255 54.1214 43.6646C53.3656 44.3036 52.8556 45.1856 52.6787 46.1594L37.6992 57.394C37.2917 56.7664 36.7262 56.2572 36.0595 55.9176C35.3928 55.5779 34.6484 55.4197 33.9012 55.459C33.1539 55.4983 32.4302 55.7336 31.8028 56.1413C31.1753 56.5489 30.6663 57.1146 30.3268 57.7814L15.5215 51.6123C15.2879 50.6383 14.7192 49.7775 13.9148 49.1806C13.1104 48.5837 12.1218 48.2888 11.1218 48.3474C10.1219 48.4061 9.17451 48.8146 8.44548 49.5015C7.71644 50.1884 7.25225 51.1098 7.13417 52.1044C7.01609 53.0991 7.25165 54.1036 7.7996 54.942C8.34755 55.7805 9.17298 56.3995 10.1314 56.6906C11.0898 56.9818 12.12 56.9266 13.0418 56.5346C13.9635 56.1426 14.718 55.4389 15.1732 54.5467L29.9785 60.7158C30.207 61.6671 30.7557 62.5109 31.5326 63.1056C32.3094 63.7004 33.2671 64.01 34.245 63.9825C35.223 63.955 36.1618 63.5921 36.904 62.9546C37.6461 62.3171 38.1465 61.4438 38.3213 60.4812L53.3008 49.2466C53.6976 49.8579 54.2446 50.3573 54.8895 50.6968C55.5343 51.0364 56.2555 51.2049 56.9841 51.1862C57.7127 51.1674 58.4243 50.9621 59.0509 50.5899C59.6775 50.2176 60.1981 49.6909 60.563 49.06L75.4482 57.7441C75.6125 58.5336 75.9973 59.2603 76.5578 59.8401C77.1183 60.4198 77.8317 60.8287 78.6152 61.0195C79.3987 61.2103 80.2203 61.1751 80.9846 60.9179C81.7489 60.6608 82.4246 60.1923 82.9335 59.5667C83.4423 58.9411 83.7635 58.1841 83.8596 57.3835C83.9557 56.5828 83.8229 55.7714 83.4766 55.0431C83.1303 54.3149 82.5847 53.6997 81.903 53.2689C81.2212 52.8382 80.4314 52.6095 79.625 52.6094ZM12.7969 52.6165C12.7959 52.9942 12.6451 53.3561 12.3775 53.6227C12.1099 53.8893 11.7474 54.0388 11.3697 54.0384C10.9919 54.0379 10.6298 53.8875 10.3629 53.6202C10.096 53.353 9.94602 52.9907 9.94602 52.6129C9.94602 52.2352 10.096 51.8729 10.3629 51.6056C10.6298 51.3383 10.9919 51.188 11.3697 51.1875C11.7474 51.187 12.1099 51.3365 12.3775 51.6031C12.6451 51.8697 12.7959 52.2316 12.7969 52.6094V52.6165ZM34.125 61.1406C33.7481 61.1401 33.3867 60.9901 33.1202 60.7236C32.8536 60.457 32.7036 60.0957 32.7031 59.7187V59.7116C32.7045 59.4307 32.7891 59.1565 32.9462 58.9236C33.1033 58.6907 33.3258 58.5096 33.5858 58.4031C33.8457 58.2965 34.1314 58.2694 34.4067 58.3251C34.6821 58.3807 34.9348 58.5167 35.1329 58.7158C35.331 58.915 35.4658 59.1683 35.52 59.4439C35.5743 59.7196 35.5458 60.0051 35.4379 60.2645C35.3301 60.5239 35.1479 60.7455 34.9142 60.9015C34.6805 61.0574 34.4059 61.1406 34.125 61.1406ZM56.875 48.3437C56.5938 48.3437 56.3189 48.2604 56.085 48.1041C55.8512 47.9479 55.669 47.7258 55.5614 47.466C55.4537 47.2062 55.4256 46.9203 55.4804 46.6445C55.5353 46.3687 55.6707 46.1153 55.8696 45.9164C56.0684 45.7176 56.3218 45.5822 56.5976 45.5273C56.8734 45.4724 57.1593 45.5006 57.4191 45.6082C57.6789 45.7158 57.901 45.8981 58.0572 46.1319C58.2135 46.3657 58.2969 46.6406 58.2969 46.9219C58.2964 47.2988 58.1464 47.6602 57.8798 47.9267C57.6133 48.1933 57.2519 48.3432 56.875 48.3437ZM79.625 58.2969C79.3438 58.2969 79.0689 58.2135 78.835 58.0572C78.6012 57.901 78.419 57.6789 78.3114 57.4191C78.2037 57.1593 78.1756 56.8734 78.2304 56.5976C78.2853 56.3218 78.4207 56.0684 78.6196 55.8696C78.8184 55.6707 79.0718 55.5353 79.3476 55.4804C79.6234 55.4256 79.9093 55.4537 80.1691 55.5614C80.4289 55.669 80.651 55.8512 80.8072 56.085C80.9635 56.3189 81.0469 56.5938 81.0469 56.875C81.0464 57.2519 80.8964 57.6133 80.6298 57.8798C80.3633 58.1464 80.0019 58.2963 79.625 58.2969Z" fill="#8F7ACC"/>
<path d="M68.25 61.1406H58.2969C57.9198 61.1406 57.5581 61.2904 57.2915 61.5571C57.0248 61.8237 56.875 62.1854 56.875 62.5625C56.875 62.9396 57.0248 63.3013 57.2915 63.5679C57.5581 63.8346 57.9198 63.9844 58.2969 63.9844H68.25C68.6271 63.9844 68.9888 63.8346 69.2554 63.5679C69.5221 63.3013 69.6719 62.9396 69.6719 62.5625C69.6719 62.1854 69.5221 61.8237 69.2554 61.5571C68.9888 61.2904 68.6271 61.1406 68.25 61.1406Z" fill="#8F7ACC"/>
<path d="M68.25 56.875H63.9844C63.6073 56.875 63.2456 57.0248 62.979 57.2915C62.7123 57.5581 62.5625 57.9198 62.5625 58.2969C62.5625 58.674 62.7123 59.0356 62.979 59.3023C63.2456 59.5689 63.6073 59.7188 63.9844 59.7188H68.25C68.6271 59.7188 68.9888 59.5689 69.2554 59.3023C69.5221 59.0356 69.6719 58.674 69.6719 58.2969C69.6719 57.9198 69.5221 57.5581 69.2554 57.2915C68.9888 57.0248 68.6271 56.875 68.25 56.875Z" fill="#8F7ACC"/>
<path d="M8.53125 44.0781H24.1719C24.549 44.0781 24.9106 43.9283 25.1773 43.6617C25.4439 43.395 25.5938 43.0334 25.5938 42.6562C25.5938 42.2791 25.4439 41.9175 25.1773 41.6508C24.9106 41.3842 24.549 41.2344 24.1719 41.2344H8.53125C8.15415 41.2344 7.79249 41.3842 7.52583 41.6508C7.25918 41.9175 7.10938 42.2791 7.10938 42.6562C7.10938 43.0334 7.25918 43.395 7.52583 43.6617C7.79249 43.9283 8.15415 44.0781 8.53125 44.0781Z" fill="#8F7ACC"/>
<path d="M28.4375 44.0781H29.8594C30.2365 44.0781 30.5981 43.9283 30.8648 43.6617C31.1314 43.395 31.2812 43.0334 31.2812 42.6562C31.2812 42.2791 31.1314 41.9175 30.8648 41.6508C30.5981 41.3842 30.2365 41.2344 29.8594 41.2344H28.4375C28.0604 41.2344 27.6987 41.3842 27.4321 41.6508C27.1654 41.9175 27.0156 42.2791 27.0156 42.6562C27.0156 43.0334 27.1654 43.395 27.4321 43.6617C27.6987 43.9283 28.0604 44.0781 28.4375 44.0781Z" fill="#8F7ACC"/>
</svg>
