<svg width="91" height="91" viewBox="0 0 91 91" fill="none" xmlns="http://www.w3.org/2000/svg">
<g clip-path="url(#clip0_0_579)">
<path d="M88.896 64.6635L83.758 63.8411C83.4744 62.9492 83.1152 62.083 82.6842 61.2512L85.7364 57.0355C86.1461 56.4698 86.0841 55.6902 85.5901 55.1963L81.6309 51.2371C81.137 50.7432 80.3575 50.6813 79.7917 51.0908L75.5762 54.1429C74.7439 53.7115 73.8774 53.3521 72.9861 53.0686L72.1637 47.9312C72.0533 47.2416 71.4583 46.7342 70.7598 46.7342H65.1608C64.4623 46.7342 63.8673 47.2416 63.7569 47.9312L62.9345 53.0686C62.0426 53.3521 61.1764 53.7113 60.344 54.1427L56.1287 51.0906C55.5628 50.681 54.7833 50.7428 54.2895 51.2369L50.3305 55.1961C49.8366 55.69 49.7745 56.4696 50.1842 57.0353L53.2364 61.2508C52.8053 62.083 52.446 62.9491 52.1626 63.8408L47.0246 64.6633C46.3348 64.7737 45.8276 65.3687 45.8276 66.0672V71.6662C45.8276 72.3647 46.335 72.9598 47.0246 73.0702L52.1624 73.8925C52.446 74.7844 52.8053 75.6505 53.2364 76.4825L50.1842 80.6982C49.7745 81.2639 49.8366 82.0434 50.3305 82.5374L54.2895 86.4964C54.7834 86.9903 55.563 87.0523 56.1287 86.6427L60.3442 83.5906C61.1764 84.022 62.0428 84.3813 62.9343 84.6648L63.7567 89.8022C63.8671 90.4919 64.4621 90.9993 65.1606 90.9993H70.7596C71.4581 90.9993 72.0532 90.4919 72.1635 89.8022L72.9859 84.6643C73.8776 84.3808 74.7439 84.0216 75.576 83.5904L79.7915 86.6427C80.3573 87.0522 81.1368 86.9903 81.6307 86.4964L85.59 82.5374C86.0839 82.0434 86.1459 81.2639 85.7362 80.6982L82.6842 76.4827C83.1155 75.6503 83.4749 74.784 83.7584 73.8924L88.896 73.07C89.5856 72.9596 90.093 72.3645 90.093 71.6661V66.0674C90.093 65.3689 89.5856 64.7739 88.896 64.6635ZM87.2493 70.4541L82.4167 71.2278C81.8572 71.3173 81.4043 71.7306 81.2639 72.2794C80.9427 73.5353 80.4431 74.7398 79.7793 75.8593C79.4903 76.3469 79.5182 76.9593 79.8506 77.4184L82.722 81.3842L80.4774 83.6288L76.5116 80.7573C76.0526 80.4248 75.4399 80.3969 74.9527 80.6861C73.8335 81.3497 72.629 81.849 71.3728 82.1705C70.824 82.3109 70.4107 82.7638 70.3212 83.3233L69.5471 88.1562H66.3728L65.5991 83.3237C65.5095 82.7641 65.0963 82.3113 64.5474 82.1709C63.2914 81.8497 62.0871 81.3503 60.9679 80.6863C60.4805 80.3971 59.8677 80.425 59.4086 80.7573L55.4426 83.6288L53.198 81.3842L56.0695 77.4183C56.4019 76.9592 56.4298 76.3467 56.1408 75.8592C55.4773 74.7403 54.9779 73.5358 54.6564 72.2792C54.5159 71.7304 54.0631 71.3172 53.5036 71.2276L48.6706 70.4539V67.2797L53.5036 66.5059C54.0629 66.4163 54.5159 66.0031 54.6564 65.4542C54.9777 64.198 55.4771 62.9935 56.1408 61.8745C56.4298 61.387 56.4017 60.7745 56.0695 60.3154L53.198 56.3496L55.4426 54.105L59.4084 56.9763C59.8675 57.3087 60.48 57.3366 60.9675 57.0476C62.0867 56.3837 63.2912 55.8843 64.5474 55.5631C65.0965 55.4227 65.5097 54.9699 65.5993 54.4104L66.373 49.5778H69.5473L70.321 54.4104C70.4106 54.9699 70.8238 55.4227 71.3728 55.5631C72.6283 55.8841 73.8328 56.3836 74.9524 57.0478C75.4397 57.3368 76.0524 57.3089 76.5115 56.9765L80.4772 54.105L82.7219 56.3496L79.8504 60.3156C79.518 60.7747 79.4901 61.3873 79.7791 61.8747C80.4426 62.9932 80.9418 64.1977 81.2635 65.4544C81.404 66.0033 81.8568 66.4165 82.4163 66.5061L87.2493 67.2797V70.4541ZM67.96 59.172C62.6142 59.172 58.2652 63.5212 58.2652 68.8669C58.2652 74.2126 62.6142 78.5616 67.96 78.5616C73.3057 78.5616 77.6546 74.2126 77.6546 68.8669C77.6546 63.5212 73.3057 59.172 67.96 59.172ZM67.96 75.718C64.1824 75.718 61.109 72.6447 61.109 68.8671C61.109 65.0893 64.1824 62.016 67.96 62.016C71.7375 62.016 74.8109 65.0893 74.8109 68.8671C74.8111 72.6447 71.7377 75.718 67.96 75.718ZM14.6171 45.222V47.6141C14.6171 49.2722 15.6678 50.6893 17.1382 51.2353V52.4933C17.1382 54.1441 18.1799 55.5557 19.6402 56.1068V57.3725C19.6402 59.5016 21.3724 61.2339 23.5015 61.2339H26.6675C28.7965 61.2339 30.5287 59.5017 30.5287 57.3725V56.1068C31.989 55.5557 33.0305 54.1441 33.0305 52.4933V51.171C34.4151 50.5836 35.3885 49.2106 35.3885 47.6143V45.221C35.7591 39.0107 37.2985 36.3788 38.7877 33.834C40.1502 31.5054 41.4372 29.3061 41.4372 25.0454C41.4372 15.9835 34.0648 8.61105 25.003 8.61105C15.9412 8.61105 8.56858 15.9833 8.56858 25.0453C8.56858 29.3059 9.85556 31.5054 11.2181 33.8339C12.7071 36.3788 14.2467 39.0109 14.6171 45.222ZM20.9885 27.2223H18.9218C17.7822 27.2223 16.8551 26.2953 16.8551 25.1556C16.8551 24.016 17.7822 23.0889 18.9218 23.0889C20.0614 23.0889 20.9885 24.016 20.9885 25.1556V27.2223ZM26.1733 43.7523H23.8322V30.0661H26.1733V43.7523ZM32.5448 46.5961V47.6141C32.5448 48.1753 32.0884 48.6317 31.5272 48.6317H18.4783C17.9172 48.6317 17.4608 48.1753 17.4608 47.6141V46.5961H32.5448ZM29.1694 53.5107H20.9997C20.4386 53.5107 19.982 53.0542 19.982 52.493V51.4753H30.1869V52.493C30.1868 53.0542 29.7303 53.5107 29.1694 53.5107ZM26.6675 58.39H23.5015C22.9404 58.39 22.4839 57.9336 22.4839 57.3723V56.3544H27.6852V57.3723C27.685 57.9336 27.2286 58.39 26.6675 58.39ZM25.0028 11.4546C32.4966 11.4546 38.5933 17.5513 38.5933 25.0453C38.5933 28.5351 37.5958 30.2397 36.3332 32.3978C34.9282 34.7988 33.2027 37.7476 32.6479 43.7525H29.0171V30.0663H31.0838C33.7914 30.0663 35.9942 27.8634 35.9942 25.1558C35.9942 22.4482 33.7914 20.2454 31.0838 20.2454C28.3762 20.2454 26.1733 22.4482 26.1733 25.1558V27.2225H23.8322V25.1558C23.8322 22.4482 21.6294 20.2454 18.9218 20.2454C16.2142 20.2454 14.0113 22.4482 14.0113 25.1558C14.0113 27.8634 16.2142 30.0663 18.9218 30.0663H20.9885V43.7525H17.3577C16.8028 37.7476 15.0774 34.799 13.6726 32.3978C12.41 30.2397 11.4125 28.5353 11.4125 25.0453C11.4123 17.5513 17.509 11.4546 25.0028 11.4546ZM29.0171 27.2223V25.1556C29.0171 24.016 29.9442 23.0889 31.0838 23.0889C32.2234 23.0889 33.1505 24.016 33.1505 25.1556C33.1505 26.2953 32.2234 27.2223 31.0838 27.2223H29.0171ZM23.5811 4.95808V1.42188C23.5811 0.636644 24.2177 0 25.003 0C25.7882 0 26.4248 0.636644 26.4248 1.42188V4.95808C26.4248 5.74331 25.7882 6.37995 25.003 6.37995C24.2177 6.37995 23.5811 5.74331 23.5811 4.95808ZM10.6806 5.6404C10.288 4.96021 10.521 4.09073 11.201 3.69812C11.881 3.30568 12.7507 3.53851 13.1433 4.21853L14.9114 7.28089C15.304 7.96108 15.071 8.83055 14.391 9.22317C14.167 9.35238 13.9227 9.41388 13.6813 9.41388C13.1899 9.41388 12.7119 9.15883 12.4485 8.70276L10.6806 5.6404ZM6.62275 16.9918C6.35934 17.4478 5.88142 17.7029 5.38998 17.7029C5.14879 17.7029 4.90423 17.6414 4.68029 17.5122L1.61792 15.7441C0.937911 15.3515 0.704902 14.4818 1.09752 13.8018C1.49013 13.1216 2.35979 12.8886 3.0398 13.2814L6.10216 15.0495C6.78235 15.4421 7.01536 16.3116 6.62275 16.9918ZM35.0942 7.28107L36.8623 4.2187C37.2549 3.53851 38.1244 3.30533 38.8046 3.6983C39.4846 4.09091 39.7176 4.96057 39.325 5.64058L37.5569 8.70294C37.2937 9.15901 36.8156 9.41406 36.3241 9.41406C36.0829 9.41406 35.8385 9.35256 35.6144 9.22335C34.9346 8.83073 34.7016 7.96108 35.0942 7.28107ZM43.383 16.9918C42.9904 16.3116 43.2234 15.4421 43.9034 15.0495L46.9658 13.2814C47.6458 12.8889 48.5154 13.1218 48.9081 13.8018C49.3007 14.482 49.0677 15.3515 48.3877 15.7441L45.3253 17.5122C45.1014 17.6414 44.857 17.7029 44.6156 17.7029C44.1243 17.7031 43.6464 17.4478 43.383 16.9918ZM44.9666 78.0211L32.5282 68.8957C32.0962 68.5788 31.5226 68.5317 31.0445 68.7738C30.5664 69.0159 30.2652 69.5062 30.2652 70.0421V73.3234C23.5455 73.1404 17.2667 71.4643 15.0534 62.8456C14.9087 62.2819 14.4349 61.8633 13.8576 61.789C13.28 61.7145 12.716 61.9998 12.4334 62.5086C9.79495 67.2565 9.83618 72.8384 12.5434 77.4398C14.134 80.1433 16.6025 82.3854 19.682 83.9239C22.6997 85.4314 26.2542 86.2735 30.2652 86.4329V89.5781C30.2652 90.1303 30.5849 90.6328 31.0854 90.8665C31.2775 90.9561 31.4828 91 31.6868 91C32.0144 91 32.3388 90.887 32.5997 90.6685L45.0381 80.2579C45.3731 79.9774 45.5604 79.5587 45.5466 79.122C45.5327 78.6855 45.3187 78.2796 44.9666 78.0211ZM33.1089 86.5339V85.0391C33.1089 84.2539 32.4723 83.6173 31.687 83.6173C23.9275 83.6173 17.8431 80.8402 14.9944 75.9978C13.4154 73.314 12.9597 70.2138 13.631 67.247C15.2084 70.5113 17.6257 72.893 20.8507 74.3513C24.425 75.9676 28.3344 76.1855 31.6872 76.1855C32.4724 76.1855 33.1091 75.5488 33.1091 74.7636V72.8487L41.8223 79.2413L33.1089 86.5339ZM44.8811 26.9399C44.8952 27.3766 45.109 27.7825 45.4613 28.0408L58.7928 37.8215C59.2248 38.1386 59.7986 38.1857 60.2765 37.9434C60.7544 37.7014 61.0559 37.211 61.0559 36.6751V33.0534C68.3378 33.2354 75.1601 35.0151 77.5608 44.3629C77.7055 44.9266 78.1793 45.3452 78.7566 45.4195C78.8176 45.4273 78.8782 45.431 78.9384 45.431C79.4496 45.431 79.9279 45.1548 80.1808 44.6998C82.991 39.6429 82.9472 33.6984 80.0642 28.7979C78.3695 25.9174 75.7385 23.5279 72.4554 21.8878C69.2096 20.2662 65.3801 19.3659 61.0557 19.2054V15.7364C61.0557 15.1842 60.7359 14.6817 60.2354 14.4482C59.7353 14.2145 59.1447 14.2916 58.7211 14.646L45.3896 25.804C45.0548 26.0845 44.8673 26.5032 44.8811 26.9399ZM58.2119 18.7807V20.6014C58.2119 21.3866 58.8486 22.0232 59.6338 22.0232C67.9877 22.0232 74.5409 25.0182 77.6131 30.2399C79.3692 33.225 79.839 36.6874 79.0186 39.9774C77.3418 36.3657 74.7254 33.7409 71.2063 32.1497C67.393 30.4253 63.2164 30.1928 59.6338 30.1928C58.8486 30.1928 58.2119 30.8295 58.2119 31.6147V33.8685L48.6056 26.8208L58.2119 18.7807Z" fill="#F67B54"/>
</g>
<defs>
<clipPath id="clip0_0_579">
<rect width="91" height="91" fill="white"/>
</clipPath>
</defs>
</svg>
