<svg width="91" height="91" viewBox="0 0 91 91" fill="none" xmlns="http://www.w3.org/2000/svg">
<g clip-path="url(#clip0_0_603)">
<path d="M21.599 24.6323H47.7546C49.4781 24.6323 49.4781 21.9663 47.7546 21.9663H21.599C19.8755 21.9663 19.8755 24.6323 21.599 24.6323Z" fill="#4DC28A"/>
<path d="M21.599 34.4121H41.7116C43.4351 34.4121 43.4351 31.7461 41.7116 31.7461H21.599C19.8755 31.7461 19.8755 34.4121 21.599 34.4121Z" fill="#4DC28A"/>
<path d="M21.599 44.1919H38.8679C40.5914 44.1919 40.5914 41.5259 38.8679 41.5259H21.599C19.8755 41.5259 19.8755 44.1919 21.599 44.1919Z" fill="#4DC28A"/>
<path d="M46.159 76.8493H45.2759V63.8215C45.2759 63.0853 44.6792 62.4885 43.9429 62.4885H38.5934V57.7896C38.5934 57.0534 37.9968 56.4565 37.2604 56.4565H30.5941C29.8578 56.4565 29.2611 57.0534 29.2611 57.7896V65.9008H23.9222C23.1858 65.9008 22.5892 66.4976 22.5892 67.2338V76.8493H21.706C20.9696 76.8493 20.373 77.4461 20.373 78.1823C20.373 78.9184 20.9696 79.5153 21.706 79.5153H46.1589C46.8952 79.5153 47.4919 78.9184 47.4919 78.1823C47.4919 77.4461 46.8952 76.8493 46.159 76.8493ZM25.2553 76.8493V68.5668H29.2558V76.8493H25.2553ZM31.9273 76.8493V59.1226H35.9276V76.8493H31.9273ZM38.6094 76.8493V65.1545H42.6099V76.8493H38.6094Z" fill="#4DC28A"/>
<path d="M90.989 41.5193C90.8153 35.9079 88.5299 30.6274 84.553 26.6506C82.6449 24.7424 80.4701 23.2599 78.148 22.201C78.1091 22.1786 78.0688 22.1578 78.027 22.1389C77.9843 22.1198 77.9412 22.103 77.8978 22.0888C74.8946 20.7645 71.654 20.1432 68.4279 20.2264V12.882C68.4279 11.1747 67.0393 9.7857 65.3321 9.7857H63.4096V8.12139C63.4096 6.41408 62.021 5.02508 60.3138 5.02508H58.3859V3.09631C58.3861 1.38899 56.9973 0 55.2903 0H3.09614C1.389 0 0.000366211 1.38899 0.000366211 3.09631V78.1182C0.000366211 79.8255 1.389 81.2145 3.09614 81.2145H5.02403V83.1433C5.02403 84.8506 6.41267 86.2396 8.1143 86.2396L10.0425 86.2474V87.9039C10.0425 89.6112 11.4312 91.0002 13.1383 91.0002H54.7777C55.1263 91.0002 55.4711 90.858 55.7181 90.612L68.0357 78.3528C68.287 78.1025 68.4283 77.7625 68.4283 77.4079V64.1927C68.608 64.1971 68.7877 64.2014 68.9673 64.2014C72.7246 64.2014 76.466 63.2411 79.7382 61.4076C81.242 60.5651 79.9387 58.2398 78.4351 59.0817C71.3181 63.0699 62.4109 62.0872 56.31 56.7792L69.4003 43.6889L87.2964 48.4312C86.5076 50.7632 85.261 52.9762 83.5496 54.9285C82.4135 56.2245 84.418 57.9819 85.5542 56.6861C89.2316 52.4914 91.1616 47.1051 90.989 41.5193ZM75.6951 24.0732L67.8842 41.434L54.4223 54.8961C47.8097 47.3116 48.112 35.7554 55.3317 28.5356C60.828 23.0394 68.8378 21.5526 75.6951 24.0732ZM8.11945 83.5734C7.88253 83.5734 7.68987 83.3803 7.68987 83.1431V8.12139C7.68987 7.88412 7.88253 7.6911 8.11945 7.6911H17.4182C19.1416 7.6911 19.1416 5.02508 17.4182 5.02508H8.11945C6.41249 5.02508 5.02385 6.41408 5.02385 8.12139V78.5483H3.09614C2.85922 78.5483 2.66638 78.3553 2.66638 78.118V3.09631C2.66638 2.85904 2.85922 2.66602 3.09614 2.66602H55.2903C55.5273 2.66602 55.7201 2.85904 55.7201 3.09631V5.02526H24.8832C23.1597 5.02526 23.1597 7.69128 24.8832 7.69128H60.314C60.5509 7.69128 60.7438 7.8843 60.7438 8.12157V9.78588H13.1381C11.4312 9.78588 10.0424 11.1749 10.0424 12.8822V83.5814L8.11945 83.5734ZM12.7084 87.9037V12.882C12.7084 12.6447 12.9012 12.4517 13.1381 12.4517H65.3323C65.5692 12.4517 65.7621 12.6447 65.7621 12.882V20.4569C61.2521 21.1227 56.9106 23.1867 53.4465 26.6507C44.8705 35.2268 44.8705 49.1811 53.4465 57.7573C56.8197 61.1303 61.072 63.2677 65.7621 63.9613V75.9605H56.5403C54.8334 75.9605 53.4446 77.3495 53.4446 79.0568V88.334H13.1381C12.9012 88.334 12.7084 88.141 12.7084 87.9037ZM56.1106 86.4384V79.0568C56.1106 78.8195 56.3034 78.6265 56.5403 78.6265H63.8872L56.1106 86.4384ZM70.86 41.3177L78.1276 25.1645C79.7599 26.0377 81.2927 27.1608 82.6676 28.5358C87.3397 33.2081 89.1334 39.7515 87.9734 45.8528L70.86 41.3177Z" fill="#4DC28A"/>
</g>
<defs>
<clipPath id="clip0_0_603">
<rect width="91" height="91" fill="white"/>
</clipPath>
</defs>
</svg>
