<svg width="91" height="91" viewBox="0 0 91 91" fill="none" xmlns="http://www.w3.org/2000/svg">
<g clip-path="url(#clip0_0_566)">
<path d="M82.725 34.3015L77.0505 33.4484C76.2351 29.7079 74.7766 26.1884 72.7042 22.9606L76.1149 18.3431C77.2105 16.8597 77.0594 14.8367 75.7554 13.5327L72.3395 10.1168C71.0354 8.81296 69.0126 8.66153 67.5291 9.75744L62.9116 13.1682C59.6839 11.0958 56.1641 9.63711 52.424 8.82185L51.571 3.14714C51.297 1.32359 49.7594 0 47.9152 0H43.0846C41.2404 0 39.703 1.32359 39.4291 3.14714L38.576 8.82185C34.8357 9.63711 31.3161 11.0958 28.0882 13.1682L23.4707 9.75744C21.9875 8.66171 19.9645 8.81314 18.6603 10.1168L15.2446 13.5327C13.9406 14.8367 13.7893 16.8597 14.8851 18.3431L18.2958 22.9606C16.2234 26.1884 14.7647 29.7081 13.9495 33.4484L8.27477 34.3015C6.45121 34.5754 5.12762 36.113 5.12762 37.957V42.7874C5.12762 44.6314 6.45121 46.1688 8.27477 46.4431L13.9495 47.296C14.7647 51.0361 16.2232 54.5557 18.2958 57.7838L14.8851 62.4013C13.7893 63.8847 13.9406 65.9078 15.2446 67.2117L18.6603 70.6276C19.9645 71.9314 21.9873 72.0827 23.4707 70.9869L28.0886 67.576C29.4351 68.4391 30.8463 69.2019 32.3052 69.8558C32.1089 70.1539 31.9065 70.4491 31.6975 70.7406C30.9393 71.799 30.5385 73.0467 30.5385 74.3486V76.0426C28.7059 76.5888 27.3654 78.2884 27.3654 80.2961C27.3654 80.9662 27.5166 81.6011 27.7836 82.1712C25.7864 82.6168 24.2886 84.402 24.2886 86.5314V89.6641C24.2886 90.4017 24.8867 90.9998 25.6243 90.9998H65.3755C66.1131 90.9998 66.7112 90.4017 66.7112 89.6641V86.5314C66.7112 84.4018 65.2132 82.6166 63.2158 82.171C63.483 81.6009 63.6342 80.9662 63.6342 80.2961C63.6342 78.2884 62.2939 76.5888 60.4613 76.0426V74.3486C60.4613 73.0467 60.0605 71.799 59.3023 70.7406C59.0935 70.4489 58.891 70.1539 58.6946 69.8557C60.1537 69.2019 61.5647 68.4391 62.9112 67.5759L67.5289 70.9868C68.1919 71.4764 68.9625 71.7172 69.7287 71.7171C70.6768 71.7171 71.618 71.3484 72.3393 70.6272L75.7552 67.2115C77.0592 65.9076 77.2103 63.8847 76.1147 62.4011L72.704 57.7836C74.7764 54.5557 76.2349 51.0362 77.0503 47.2958L82.725 46.4429C84.5486 46.1686 85.8722 44.6312 85.8722 42.7872V37.957C85.8722 36.1128 84.5486 34.5754 82.725 34.3015ZM64.04 86.5316V88.3288H26.96V86.5316C26.96 85.5407 27.7662 84.7345 28.7571 84.7345H62.2426C63.2336 84.7345 64.04 85.5407 64.04 86.5316ZM60.9631 80.2963C60.9631 81.2706 60.1704 82.0633 59.1962 82.0633H31.8038C30.8294 82.0633 30.0367 81.2706 30.0367 80.2963C30.0367 79.322 30.8294 78.5293 31.8038 78.5293H38.0126C38.7502 78.5293 39.3482 77.9312 39.3482 77.1936C39.3482 76.456 38.7502 75.8579 38.0126 75.8579H33.2098V74.3486C33.2098 73.608 33.4379 72.8983 33.869 72.2963C37.4637 67.278 39.3639 61.3624 39.3639 55.1894V53.524H51.6357V55.1894C51.6357 61.3624 53.5359 67.278 57.1306 72.2963C57.5619 72.8985 57.7898 73.6082 57.7898 74.3486V75.8579H43.3547C42.6171 75.8579 42.0191 76.456 42.0191 77.1936C42.0191 77.9312 42.6171 78.5293 43.3547 78.5293H59.1958C60.1704 78.5293 60.9631 79.322 60.9631 80.2963ZM45.4995 39.4814H34.9351C33.9839 39.4814 33.21 38.7075 33.21 37.7563V30.0762C33.21 30.0593 33.2239 30.0455 33.2409 30.0455H36.6621C36.6792 30.0455 36.6931 30.0593 36.6931 30.0762V33.0405C36.6931 34.452 37.8414 35.6004 39.253 35.6004H41.0193C42.4309 35.6004 43.5792 34.452 43.5792 33.0405V30.0762C43.5792 30.0593 43.5931 30.0455 43.6101 30.0455H47.3902C47.4073 30.0455 47.4211 30.0593 47.4211 30.0762V33.0405C47.4211 34.452 48.5695 35.6004 49.981 35.6004H51.7473C53.1589 35.6004 54.3073 34.452 54.3073 33.0405V30.0762C54.3073 30.0593 54.3211 30.0455 54.3382 30.0455H57.7594C57.7763 30.0455 57.7901 30.0593 57.7901 30.0762V37.7563C57.7901 38.7075 57.0163 39.4814 56.065 39.4814H50.8418C50.1042 39.4814 49.5061 40.0795 49.5061 40.8171C49.5061 41.5546 50.1042 42.1527 50.8418 42.1527H53.4671C54.4662 42.1527 55.2789 42.9655 55.2789 43.9646C55.2789 44.9636 54.4662 45.7764 53.4671 45.7764H37.5329C36.5338 45.7764 35.721 44.9636 35.721 43.9646C35.721 42.9655 36.5338 42.1527 37.5329 42.1527H45.4993C46.2369 42.1527 46.8349 41.5548 46.8349 40.8171C46.8349 40.0795 46.237 39.4814 45.4995 39.4814ZM51.6359 48.4475V50.8528H39.3641V48.4475H51.6359ZM83.201 42.7876C83.201 43.2991 82.8338 43.7257 82.328 43.8018L75.7289 44.7937C75.1667 44.8783 74.7195 45.3095 74.6147 45.8683C73.8577 49.9043 72.2956 53.6736 69.9721 57.0718C69.6512 57.541 69.6624 58.162 70.0003 58.6191L73.9665 63.9885C74.2704 64.3999 74.2286 64.9612 73.8667 65.3229L70.4509 68.7388C70.0892 69.1005 69.5279 69.1424 69.1164 68.8385L63.7471 64.8723C63.29 64.5346 62.6691 64.5233 62.1996 64.8441C60.6661 65.8927 59.0314 66.7936 57.3295 67.5359C56.6013 66.1438 56.0011 64.6967 55.5326 63.2077C59.713 61.372 63.2937 58.4417 65.9371 54.6709C68.8838 50.4675 70.4413 45.5231 70.4413 40.3722C70.4413 26.6196 59.2527 15.4311 45.5002 15.4311C42.9116 15.4311 40.3597 15.8262 37.9157 16.6055C37.2129 16.8297 36.825 17.581 37.0489 18.2837C37.273 18.9865 38.0245 19.3746 38.7271 19.1505C40.9084 18.455 43.1871 18.1022 45.5 18.1022C57.7797 18.1022 67.7699 28.0925 67.7699 40.3722C67.7699 44.9716 66.3797 49.3858 63.7498 53.1376C61.4721 56.3868 58.4168 58.9378 54.8533 60.5856C54.4921 58.8251 54.3073 57.0199 54.3073 55.1894V53.524H55.2924C56.03 53.524 56.6281 52.9259 56.6281 52.1883C56.6281 51.4507 56.03 50.8526 55.2924 50.8526H54.3073V48.3674C56.3789 47.9728 57.9503 46.1493 57.9503 43.9644C57.9503 43.2302 57.7711 42.5377 57.4569 41.9254C59.2006 41.3417 60.4615 39.694 60.4615 37.7561V30.0762C60.4615 28.5863 59.2493 27.3741 57.7594 27.3741H54.3382C52.8482 27.3741 51.6361 28.5863 51.6361 30.0762V32.929H50.0923V30.0762C50.0923 28.5863 48.8801 27.3741 47.3902 27.3741H43.6101C42.1202 27.3741 40.908 28.5863 40.908 30.0762V32.929H39.3642V30.0762C39.3642 28.5863 38.1521 27.3741 36.6621 27.3741H33.2409C31.751 27.3741 30.5388 28.5863 30.5388 30.0762V37.7563C30.5388 39.694 31.7995 41.3419 33.5433 41.9256C33.229 42.5379 33.05 43.2303 33.05 43.9646C33.05 46.1494 34.6214 47.973 36.6931 48.3676V50.8528H35.7079C34.9703 50.8528 34.3722 51.4509 34.3722 52.1885C34.3722 52.9261 34.9703 53.5242 35.7079 53.5242H36.6931V55.1895C36.6931 57.02 36.508 58.8253 36.1471 60.5857C32.5835 58.9378 29.5282 56.3868 27.2506 53.1378C24.6205 49.386 23.2304 44.9718 23.2304 40.3724C23.2304 36.4405 24.2684 32.5764 26.2325 29.1978C28.1392 25.9176 30.8712 23.1581 34.1328 21.2181C34.7668 20.841 34.9751 20.0214 34.5979 19.3874C34.221 18.7536 33.4013 18.5453 32.7673 18.9223C29.1161 21.094 26.0578 24.1831 23.9232 27.8554C21.7225 31.6413 20.5592 35.9697 20.5592 40.3725C20.5592 45.5235 22.1167 50.4679 25.0634 54.6713C27.7068 58.4421 31.2875 61.3724 35.4679 63.208C34.9994 64.6971 34.3992 66.1442 33.6711 67.5362C31.9689 66.794 30.3343 65.8929 28.8008 64.8444C28.3316 64.5236 27.7107 64.535 27.2534 64.8727L21.8839 68.8388C21.4728 69.1428 20.9115 69.101 20.5496 68.7391L17.1339 65.3232C16.7722 64.9616 16.7303 64.4005 17.0342 63.989L21.0004 58.6196C21.3381 58.1625 21.3494 57.5415 21.0285 57.0721C18.7048 53.6736 17.1426 49.9043 16.3859 45.8686C16.281 45.3098 15.8338 44.8786 15.2716 44.794L8.67254 43.8021C8.1667 43.726 7.79951 43.2995 7.79951 42.788V37.957C7.79951 37.4454 8.1667 37.019 8.67254 36.943L15.2718 35.9509C15.8342 35.8664 16.2812 35.4351 16.386 34.8763C17.143 30.8405 18.7049 27.0711 21.0286 23.6728C21.3494 23.2036 21.3382 22.5826 21.0005 22.1253L17.0337 16.7559C16.7298 16.3445 16.7717 15.7832 17.1334 15.4215L20.5491 12.0058C20.9106 11.6439 21.4719 11.6021 21.8835 11.9061L27.2529 15.8722C27.71 16.2099 28.331 16.2213 28.8002 15.9005C32.1985 13.5768 35.9681 12.0147 40.0037 11.2579C40.5625 11.153 40.9937 10.706 41.0783 10.1437L42.0704 3.54438C42.1465 3.03855 42.5729 2.67135 43.0844 2.67135H47.915C48.4266 2.67135 48.8531 3.03855 48.9292 3.54438L49.9211 10.1437C50.0057 10.7058 50.4369 11.153 50.9957 11.2579C55.0317 12.0148 58.8011 13.5768 62.1994 15.9005C62.6688 16.2215 63.2896 16.2099 63.7469 15.8722L69.1163 11.9061C69.5277 11.6021 70.089 11.6441 70.4507 12.0058L73.8666 15.4217C74.2283 15.7833 74.2702 16.3446 73.9663 16.7561L70.0001 22.1256C69.6624 22.5829 69.6511 23.2038 69.9719 23.6732C72.2954 27.0713 73.8575 30.8406 74.6145 34.8766C74.7193 35.4354 75.1665 35.8666 75.7287 35.9512L82.3278 36.9433C82.8336 37.0194 83.2008 37.4458 83.2008 37.9573V42.7876H83.201Z" fill="#4DC28A"/>
</g>
<defs>
<clipPath id="clip0_0_566">
<rect width="91" height="91" fill="white"/>
</clipPath>
</defs>
</svg>
