<svg width="122" height="143" viewBox="0 0 122 143" fill="none" xmlns="http://www.w3.org/2000/svg">
<path fill-rule="evenodd" clip-rule="evenodd" d="M61.3427 0.00212359C79.6821 -0.17036 96.9461 10.1817 108.155 24.7002C118.229 37.747 115.301 55.0855 116.561 71.5212C118.006 90.3852 127.548 111.187 115.927 126.115C103.798 141.697 81.0205 144.065 61.3427 142.454C43.2288 140.971 26.8762 131.629 15.02 117.852C4.03253 105.084 0.230307 88.3668 0.300074 71.5212C0.369488 54.7609 4.52209 38.3199 15.4022 25.5726C27.2308 11.7139 43.125 0.173462 61.3427 0.00212359Z" fill="#E2FCEC"/>
<g clip-path="url(#clip0_0_325)">
<path d="M88.4744 90.1934H84.8373V75.3838C84.8373 74.9468 84.4829 74.5925 84.0459 74.5925C83.6088 74.5925 83.2545 74.9468 83.2545 75.3838V90.1934H77.0911V64.1445C77.0911 63.9991 77.2094 63.8807 77.3549 63.8807H82.9907C83.1361 63.8807 83.2545 63.9991 83.2545 64.1445V72.2183C83.2545 72.6554 83.6088 73.0097 84.0459 73.0097C84.4829 73.0097 84.8373 72.6554 84.8373 72.2183V64.1445C84.8373 63.1264 84.009 62.298 82.9907 62.298H77.3549C76.3367 62.298 75.5083 63.1264 75.5083 64.1445V90.1935H72.9262V69.9038C72.9262 68.8857 72.0978 68.0573 71.0797 68.0573H65.4438C64.4256 68.0573 63.5973 68.8857 63.5973 69.9038V90.1935H61.0152V75.6631C61.0152 74.645 60.1869 73.8166 59.1686 73.8166H53.5328C52.5147 73.8166 51.6862 74.645 51.6862 75.6631V82.5831C51.6862 83.0202 52.0406 83.3745 52.4776 83.3745C52.9147 83.3745 53.269 83.0202 53.269 82.5831V75.6631C53.269 75.5176 53.3874 75.3993 53.5328 75.3993H59.1686C59.3141 75.3993 59.4324 75.5176 59.4324 75.6631V90.1934H53.269V85.7486C53.269 85.3116 52.9147 84.9573 52.4776 84.9573C52.0406 84.9573 51.6862 85.3116 51.6862 85.7486V90.1934H49.1041V81.4224C49.1041 80.4043 48.2758 79.5759 47.2576 79.5759H41.6218C40.6037 79.5759 39.7753 80.4043 39.7753 81.4224V90.1934H36.1381C35.7011 90.1934 35.3468 90.5477 35.3468 90.9848C35.3468 91.4218 35.7011 91.7762 36.1381 91.7762H88.4744C88.9115 91.7762 89.2658 91.4218 89.2658 90.9848C89.2658 90.5477 88.9115 90.1934 88.4744 90.1934ZM65.18 69.9038C65.18 69.7584 65.2984 69.64 65.4438 69.64H71.0797C71.2251 69.64 71.3435 69.7584 71.3435 69.9038V90.1935H65.18V69.9038ZM41.3581 81.4224C41.3581 81.277 41.4764 81.1587 41.6218 81.1587H47.2577C47.4032 81.1587 47.5215 81.277 47.5215 81.4224V90.1934H41.3581V81.4224Z" fill="#20935B"/>
<path d="M43.7972 70.1285C43.8406 70.1285 43.8843 70.127 43.9282 70.124C49.7646 69.7186 55.2528 68.4449 60.2407 66.3383C66.957 63.5016 72.5172 59.2256 76.7782 53.6226L79.4455 55.4771C79.9709 55.8689 80.7716 55.398 80.6847 54.7483L79.5792 43.7358C79.5432 43.2655 79.0459 42.9195 78.5923 43.0489L67.8741 45.8405C67.2342 45.9848 67.0713 46.8997 67.6217 47.2561L70.3133 49.1276C69.7778 49.9689 68.5979 51.6373 66.5407 53.678C66.2304 53.9859 66.2283 54.4869 66.5361 54.7971C66.8439 55.1074 67.345 55.1094 67.6553 54.8016C70.8268 51.6556 72.0242 49.3554 72.0736 49.259C72.2543 48.9064 72.1465 48.4744 71.8212 48.2482L69.9377 46.9386L78.0968 44.8136L78.9384 53.1966L77.0533 51.886C76.7002 51.6405 76.2162 51.7218 75.9626 52.0687C71.816 57.7424 66.3191 62.0528 59.6249 64.8801C53.6129 67.4193 47.711 68.2745 43.8187 68.5449C43.5913 68.6032 43.5224 68.1857 43.7489 68.1614C52.4197 65.4856 59.661 61.7239 65.2716 56.981C65.6055 56.6988 65.6473 56.1995 65.3651 55.8657C65.0831 55.532 64.5836 55.49 64.2499 55.7723C58.8029 60.3769 51.7484 64.0363 43.2823 66.649C42.4031 66.9203 41.8872 67.773 42.0556 68.6764C42.2157 69.5355 42.9371 70.1285 43.7972 70.1285Z" fill="#20935B"/>
</g>
<defs>
<clipPath id="clip0_0_325">
<rect width="53.919" height="53.919" fill="white" transform="translate(35.3466 40.4391)"/>
</clipPath>
</defs>
</svg>
