<svg width="90" height="77" viewBox="0 0 90 77" fill="none" xmlns="http://www.w3.org/2000/svg">
<path d="M23.552 75.66L2 38.33L23.552 1H66.657L88.21 38.33L66.657 75.66H23.552Z" fill="white" stroke="#6041B7" stroke-width="2" stroke-miterlimit="10"/>
<path d="M66.1381 45.208H23.1831C22.5271 45.208 21.9961 44.676 21.9961 44.021V20.25C21.9961 19.594 22.5271 19.063 23.1831 19.063H66.1381C66.7941 19.063 67.3251 19.595 67.3251 20.25V44.021C67.3251 44.676 66.7941 45.208 66.1381 45.208ZM24.3701 42.833H64.9511V21.436H24.3701V42.833Z" fill="#6041B7"/>
<path d="M71.1432 51.521H18.1792C17.5232 51.521 16.9922 50.989 16.9922 50.334C16.9922 49.678 17.5232 49.147 18.1792 49.147H71.1432C71.7992 49.147 72.3302 49.679 72.3302 50.334C72.3302 50.989 71.7992 51.521 71.1432 51.521Z" fill="#6041B7"/>
<path d="M68.8612 49.7026H20.4622C19.8352 49.7026 19.3271 49.1946 19.3271 48.5676C19.3271 47.9406 19.8352 47.4326 20.4622 47.4326H68.8612C69.4882 47.4326 69.9962 47.9406 69.9962 48.5676C69.9962 49.1946 69.4882 49.7026 68.8612 49.7026Z" fill="#6041B7"/>
<path d="M59.9743 39.7292C59.6773 39.7292 59.3853 39.5912 59.1993 39.3312L54.9803 33.4372C54.6743 33.0102 54.7723 32.4142 55.2003 32.1082C55.6273 31.8012 56.2223 31.9002 56.5293 32.3282L60.7483 38.2222C61.0543 38.6492 60.9563 39.2442 60.5283 39.5512C60.3603 39.6712 60.1663 39.7292 59.9743 39.7292Z" fill="#6041B7"/>
<path d="M54.0211 38.5798L53.1001 29.1748L61.7061 33.0788L56.9911 34.6098L54.0211 38.5798Z" fill="#6041B7"/>
</svg>
