<svg width="90" height="77" viewBox="0 0 90 77" fill="none" xmlns="http://www.w3.org/2000/svg">
<path d="M23.4724 75.3828L2 38.1914L23.4724 1H66.4172L87.8895 38.1914L66.4172 75.3828H23.4724Z" fill="white" stroke="#6041B7" stroke-width="2" stroke-miterlimit="10"/>
<path d="M44.9455 39.3766C40.6376 39.3766 37.2703 35.7525 35.4684 32.2181C34.1387 31.6659 32.9218 30.2112 32.3807 28.9687C31.9589 28.0012 31.8332 26.9605 32.0257 26.0369C32.2412 25.0053 32.8478 24.1996 33.6914 23.8243C34.2986 18.0054 39.099 13.556 44.9455 13.556C50.7907 13.556 55.5912 18.0054 56.199 23.8243C57.042 24.199 57.6492 25.0046 57.8647 26.0369C58.0572 26.9605 57.9314 28.0012 57.5096 28.9687C56.9686 30.2105 55.7516 31.6659 54.422 32.2181C52.6201 35.7525 49.2534 39.3766 44.9455 39.3766ZM44.9455 15.6565C39.9715 15.6565 35.9256 19.6278 35.735 24.6968L35.6996 25.6472L34.7505 25.7061C34.6359 25.7134 34.5789 25.7291 34.5514 25.7408C34.2468 25.8738 34.127 26.2518 34.0824 26.4659C33.9796 26.9598 34.0615 27.5657 34.3071 28.129C34.7846 29.2248 35.8286 30.1961 36.4443 30.3337L36.9434 30.445L37.1642 30.9068C38.6333 33.9859 41.4492 37.276 44.9455 37.276C48.4412 37.276 51.2571 33.9853 52.7262 30.9068L52.947 30.445L53.4461 30.3337C54.0611 30.1968 55.1052 29.2248 55.5833 28.129C55.8289 27.5657 55.9108 26.9598 55.808 26.4659C55.7634 26.2524 55.6436 25.8738 55.3403 25.7422C55.3115 25.7291 55.2545 25.7134 55.1399 25.7061L54.1908 25.6472L54.1554 24.6968C53.9641 19.6271 49.9196 15.6565 44.9455 15.6565Z" fill="#6041B7"/>
<path d="M53.2419 39.8906L49.0139 55.6223H40.8756L36.6476 39.8906C31.0061 41.3159 26.7978 46.4478 26.7978 52.5163V62.8272H63.0904V52.5163C63.0917 46.4478 58.884 41.3159 53.2419 39.8906Z" fill="#6041B7"/>
<path d="M44.9448 41.8287C45.6778 41.8287 46.2876 42.3933 46.3433 43.1243L47.6487 60.1293C47.3428 60.3631 47.0264 60.4941 46.7016 60.4941H43.1868C42.862 60.4941 42.5456 60.3631 42.2397 60.1293L43.5451 43.1243C43.6028 42.3933 44.2119 41.8287 44.9448 41.8287Z" fill="#6041B7"/>
<path d="M54.4031 20.9935C52.8455 17.2417 49.2025 14.606 44.9457 14.606C40.6888 14.606 37.0457 17.2411 35.4882 20.9935H54.4031Z" fill="#6041B7"/>
<path d="M55.0318 21.4141H34.8579L35.0989 20.8324C36.7751 16.795 40.6389 14.1855 44.9442 14.1855C49.2495 14.1855 53.1146 16.795 54.7901 20.8324L55.0318 21.4141ZM36.1378 20.573H53.7519C52.0902 17.1828 48.6993 15.0259 44.9442 15.0259C41.1904 15.0265 37.7995 17.1828 36.1378 20.573Z" fill="#6041B7"/>
</svg>
