<svg width="54" height="54" viewBox="0 0 54 54" fill="none" xmlns="http://www.w3.org/2000/svg">
<path d="M27.9954 7.32073H23.0779C22.6255 7.32073 22.2584 6.95356 22.2584 6.50116C22.2584 6.04875 22.6255 5.68158 23.0779 5.68158H27.9954C28.4478 5.68158 28.815 6.04875 28.815 6.50116C28.815 6.95356 28.4478 7.32073 27.9954 7.32073Z" fill="#59309B"/>
<path d="M34.552 51.5778H16.5213C14.261 51.5778 12.4235 49.7387 12.4235 47.4799V36.0059C12.4235 35.5535 12.7906 35.1863 13.243 35.1863C13.6954 35.1863 14.0626 35.5535 14.0626 36.0059V47.4799C14.0626 48.8355 15.1658 49.9387 16.5213 49.9387H34.552C35.9076 49.9387 37.0107 48.8355 37.0107 47.4799V19.6144C37.0107 19.162 37.3779 18.7948 37.8303 18.7948C38.2827 18.7948 38.6499 19.162 38.6499 19.6144V47.4799C38.6499 49.7387 36.8124 51.5778 34.552 51.5778Z" fill="#59309B"/>
<path d="M37.8303 8.95992C37.3779 8.95992 37.0107 8.59275 37.0107 8.14035V6.5012C37.0107 5.14562 35.9076 4.04247 34.552 4.04247H16.5213C15.1658 4.04247 14.0626 5.14562 14.0626 6.5012V8.14035C14.0626 8.59275 13.6954 8.95992 13.243 8.95992C12.7906 8.95992 12.4235 8.59275 12.4235 8.14035V6.5012C12.4235 4.24245 14.261 2.40332 16.5213 2.40332H34.552C36.8124 2.40332 38.6499 4.24245 38.6499 6.5012V8.14035C38.6499 8.59275 38.2827 8.95992 37.8303 8.95992Z" fill="#59309B"/>
<path d="M24.7171 41.7429H18.1605C17.7081 41.7429 17.3409 41.3757 17.3409 40.9233C17.3409 40.4709 17.7081 40.1038 18.1605 40.1038H24.7171C25.1695 40.1038 25.5366 40.4709 25.5366 40.9233C25.5366 41.3757 25.1695 41.7429 24.7171 41.7429Z" fill="#59309B"/>
<path d="M29.6345 45.0212H18.1605C17.7081 45.0212 17.3409 44.6541 17.3409 44.2017C17.3409 43.7492 17.7081 43.3821 18.1605 43.3821H29.6345C30.0869 43.3821 30.4541 43.7492 30.4541 44.2017C30.4541 44.6541 30.0869 45.0212 29.6345 45.0212Z" fill="#59309B"/>
<path d="M32.9128 38.4646H18.1605C17.7081 38.4646 17.3409 38.0974 17.3409 37.645C17.3409 37.1926 17.7081 36.8254 18.1605 36.8254H32.9128C33.3652 36.8254 33.7324 37.1926 33.7324 37.645C33.7324 38.0974 33.3652 38.4646 32.9128 38.4646Z" fill="#59309B"/>
<path d="M15.7018 23.7122C13.4414 23.7122 11.6039 21.8731 11.6039 19.6144C11.6039 17.3556 13.4414 15.5165 15.7018 15.5165C17.9621 15.5165 19.7996 17.3556 19.7996 19.6144C19.7996 21.8731 17.9621 23.7122 15.7018 23.7122ZM15.7018 17.1556C14.3462 17.1556 13.243 18.2588 13.243 19.6144C13.243 20.9699 14.3462 22.0731 15.7018 22.0731C17.0573 22.0731 18.1605 20.9699 18.1605 19.6144C18.1605 18.2588 17.0573 17.1556 15.7018 17.1556Z" fill="#59309B"/>
<path d="M15.702 33.5472C12.8269 33.5472 10.0682 32.4621 7.93405 30.4951C7.7144 30.2918 7.62261 29.9853 7.69473 29.6968C8.32417 27.1381 10.6059 25.3514 13.2433 25.3514H18.1607C20.7981 25.3514 23.0798 27.1381 23.7109 29.6952C23.783 29.9853 23.6896 30.2918 23.4716 30.4935C21.3357 32.4621 18.5771 33.5472 15.702 33.5472ZM9.42895 29.6247C12.9728 32.5768 18.4312 32.5768 21.975 29.6247C21.3849 28.0528 19.8785 26.9906 18.1607 26.9906H13.2433C11.5254 26.9906 10.019 28.0528 9.42895 29.6247Z" fill="#59309B"/>
<path d="M15.7017 33.5472C9.37623 33.5472 4.22766 28.4002 4.22766 22.0731C4.22766 15.746 9.37623 10.5991 15.7017 10.5991C22.0272 10.5991 27.1758 15.746 27.1758 22.0731C27.1758 28.4002 22.0272 33.5472 15.7017 33.5472ZM15.7017 12.2382C10.2778 12.2382 5.86681 16.6492 5.86681 22.0731C5.86681 27.4971 10.2778 31.908 15.7017 31.908C21.1257 31.908 25.5366 27.4971 25.5366 22.0731C25.5366 16.6492 21.1257 12.2382 15.7017 12.2382Z" fill="#59309B"/>
<path d="M8.32556 38.3827C7.87315 38.3827 7.50598 38.0975 7.50598 37.6451V37.4811C7.50598 37.0287 7.87315 36.6616 8.32556 36.6616C8.77796 36.6616 9.14513 37.0287 9.14513 37.4811C9.14513 37.9335 8.77796 38.3827 8.32556 38.3827Z" fill="#59309B"/>
<path d="M8.32568 41.6609C7.87327 41.6609 7.5061 41.3757 7.5061 40.9233V40.7594C7.5061 40.307 7.87327 39.9398 8.32568 39.9398C8.77808 39.9398 9.14525 40.307 9.14525 40.7594C9.14525 41.2118 8.77808 41.6609 8.32568 41.6609Z" fill="#59309B"/>
<path d="M8.32568 44.9392C7.87327 44.9392 7.5061 44.654 7.5061 44.2016V44.0377C7.5061 43.5852 7.87327 43.2181 8.32568 43.2181C8.77808 43.2181 9.14525 43.5852 9.14525 44.0377C9.14525 44.4901 8.77808 44.9392 8.32568 44.9392Z" fill="#59309B"/>
<path d="M40.8463 45.0212H39.4694C39.017 45.0212 38.6498 44.6541 38.6498 44.2017C38.6498 43.7493 39.017 43.3821 39.4694 43.3821H40.1857L40.5873 41.5216C40.6529 41.2135 40.8906 40.9725 41.1954 40.8988C41.9691 40.7119 42.7231 40.3972 43.4362 39.9628C43.7001 39.7989 44.0394 39.8038 44.3033 39.971L45.926 41.0086L46.9308 39.9956L45.8933 38.3859C45.7228 38.122 45.7195 37.7827 45.8818 37.5156C46.3162 36.8025 46.6309 36.0485 46.8161 35.2748C46.8899 34.97 47.1292 34.7339 47.4357 34.6651L49.3027 34.2504V32.8456L47.4357 32.4309C47.1292 32.3621 46.8899 32.126 46.8161 31.8212C46.6309 31.0475 46.3145 30.2935 45.8818 29.5804C45.7179 29.3132 45.7211 28.9756 45.8916 28.7117L46.9308 27.0873L45.9277 26.0841L44.3033 27.1233C44.041 27.2922 43.7017 27.2955 43.4362 27.1315C42.7215 26.6972 41.9675 26.3824 41.1954 26.1956C40.8889 26.1218 40.6529 25.8792 40.5873 25.5727L40.1857 23.7123H39.4694C39.017 23.7123 38.6498 23.3451 38.6498 22.8927C38.6498 22.4403 39.017 22.0731 39.4694 22.0731H40.8463C41.2315 22.0731 41.5659 22.3436 41.6462 22.7206L42.0839 24.7417C42.6838 24.9236 43.2722 25.1695 43.8394 25.476L45.5998 24.3499C45.9244 24.145 46.3489 24.1876 46.621 24.4614L48.5569 26.3956C48.829 26.6677 48.8749 27.0922 48.6667 27.4168L47.5406 29.1772C47.8471 29.746 48.093 30.3344 48.2749 30.936L50.2993 31.3851C50.6747 31.4687 50.9418 31.8015 50.9418 32.185V34.906C50.9418 35.2896 50.6747 35.624 50.2993 35.7059L48.2749 36.1551C48.093 36.7566 47.8471 37.3451 47.5406 37.9122L48.6651 39.6563C48.8749 39.9792 48.8306 40.4054 48.5585 40.6775L46.6227 42.6281C46.3506 42.9018 45.926 42.9493 45.5998 42.7412L43.8394 41.6151C43.2706 41.9216 42.6838 42.1675 42.0839 42.3494L41.6462 44.3705C41.5659 44.7508 41.2315 45.0212 40.8463 45.0212Z" fill="#59309B"/>
<path d="M41.1955 38.0843C40.8873 38.0843 40.5923 37.9089 40.4529 37.6106C40.2628 37.2008 40.4398 36.7124 40.8496 36.5222C42.0019 35.9846 42.7478 34.8175 42.7478 33.5472C42.7478 31.7392 41.2774 30.2689 39.4694 30.2689C39.0252 30.2689 38.5974 30.3557 38.1958 30.5262C37.7811 30.7049 37.2992 30.5098 37.1222 30.0918C36.9452 29.6755 37.1402 29.1952 37.5566 29.0182C38.1598 28.7608 38.8056 28.6297 39.4694 28.6297C42.1806 28.6297 44.3869 30.836 44.3869 33.5472C44.3869 35.4535 43.269 37.2041 41.5413 38.0073C41.4282 38.0597 41.3119 38.0843 41.1955 38.0843Z" fill="#59309B"/>
<path d="M43.5673 17.1557H33.7324C31.9244 17.1557 30.4541 15.6853 30.4541 13.8774C30.4541 12.0694 31.9244 10.5991 33.7324 10.5991H43.5673C45.3753 10.5991 46.8456 12.0694 46.8456 13.8774C46.8456 15.6853 45.3753 17.1557 43.5673 17.1557ZM33.7324 12.2382C32.8276 12.2382 32.0933 12.9742 32.0933 13.8774C32.0933 14.7805 32.8276 15.5165 33.7324 15.5165H43.5673C44.4721 15.5165 45.2065 14.7805 45.2065 13.8774C45.2065 12.9742 44.4721 12.2382 43.5673 12.2382H33.7324Z" fill="#59309B"/>
</svg>
