<svg width="91" height="78" viewBox="0 0 91 78" fill="none" xmlns="http://www.w3.org/2000/svg">
<path d="M23.8853 76.8116L2 38.9061L23.8853 1H67.6551L89.5397 38.9061L67.6551 76.8116H23.8853Z" fill="white" stroke="#6041B7" stroke-width="2" stroke-miterlimit="10"/>
<path d="M67.8688 21.4198H23.2467C22.1302 21.4198 21.2252 20.5148 21.2252 19.3983C21.2252 18.2819 22.1302 17.3769 23.2467 17.3769H67.8688C68.9853 17.3769 69.8903 18.2819 69.8903 19.3983C69.8896 20.5148 68.9853 21.4198 67.8688 21.4198Z" fill="#6041B7"/>
<path d="M67.8689 61.1261H23.2468C22.1303 61.1261 21.2253 60.2212 21.2253 59.1047C21.2253 57.9882 22.1303 57.0832 23.2468 57.0832H67.8689C68.9854 57.0832 69.8904 57.9882 69.8904 59.1047C69.8897 60.2219 68.9854 61.1261 67.8689 61.1261Z" fill="#6041B7"/>
<path d="M66.2994 59.2343H24.8159C23.9316 59.2343 23.2124 58.5151 23.2124 57.6308V20.8738C23.2124 19.9894 23.9316 19.2703 24.8159 19.2703H66.2994C67.1837 19.2703 67.9029 19.9894 67.9029 20.8738V57.6308C67.9029 58.5151 67.1837 59.2343 66.2994 59.2343ZM25.1662 57.2797H65.9483V21.2241H25.1662V57.2797Z" fill="#6041B7"/>
<path d="M44.6113 28.3759C38.6757 28.3759 33.8638 33.1878 33.8638 39.1234C33.8638 45.059 38.6757 49.8709 44.6113 49.8709C50.5469 49.8709 55.3588 45.059 55.3588 39.1234H44.6113V28.3759Z" fill="#6041B7"/>
<path d="M58.6204 37.4265H46.3092V25.1153H47.091C53.4481 25.1153 58.6204 30.2876 58.6204 36.6447V37.4265ZM47.8721 35.8628H57.0261C56.6459 30.9889 52.7461 27.0891 47.8721 26.7089V35.8628Z" fill="#6041B7"/>
</svg>
